<svg xmlns="http://www.w3.org/2000/svg" xmlns:xlink="http://www.w3.org/1999/xlink" viewBox="0 0 906.94 156.85"><defs><style>.cls-1{fill:url(#linear-gradient);}.cls-2{fill:none;stroke:#fff;stroke-miterlimit:10;}.cls-3{fill:url(#linear-gradient-2);}.cls-4{fill:url(#linear-gradient-3);}.cls-5{fill:url(#linear-gradient-4);}.cls-6{fill:url(#linear-gradient-5);}.cls-7{fill:url(#linear-gradient-6);}.cls-8{fill:url(#linear-gradient-7);}.cls-9{fill:url(#linear-gradient-8);}.cls-10{fill:url(#linear-gradient-9);}.cls-11{fill:url(#linear-gradient-10);}.cls-12{fill:url(#linear-gradient-11);}</style><linearGradient id="linear-gradient" x1="0.57" y1="78.42" x2="101.55" y2="78.42" gradientUnits="userSpaceOnUse"><stop offset="0" stop-color="#fff" stop-opacity="0.2"/><stop offset="0.02" stop-color="#fff" stop-opacity="0.22"/><stop offset="0.2" stop-color="#fff" stop-opacity="0.43"/><stop offset="0.38" stop-color="#fff" stop-opacity="0.6"/><stop offset="0.56" stop-color="#fff" stop-opacity="0.73"/><stop offset="0.72" stop-color="#fff" stop-opacity="0.82"/><stop offset="0.87" stop-color="#fff" stop-opacity="0.88"/><stop offset="1" stop-color="#fff" stop-opacity="0.9"/></linearGradient><linearGradient id="linear-gradient-2" x1="123.76" y1="24.26" x2="167.37" y2="24.26" xlink:href="#linear-gradient"/><linearGradient id="linear-gradient-3" x1="123.4" y1="106.34" x2="167.85" y2="106.34" xlink:href="#linear-gradient"/><linearGradient id="linear-gradient-4" x1="190.55" y1="79.07" x2="290.45" y2="79.07" xlink:href="#linear-gradient"/><linearGradient id="linear-gradient-5" x1="299.82" y1="78.19" x2="399.39" y2="78.19" xlink:href="#linear-gradient"/><linearGradient id="linear-gradient-6" x1="408.22" y1="78.96" x2="508.95" y2="78.96" xlink:href="#linear-gradient"/><linearGradient id="linear-gradient-7" x1="531.38" y1="78.73" x2="632.65" y2="78.73" xlink:href="#linear-gradient"/><linearGradient id="linear-gradient-8" x1="651.39" y1="79.08" x2="722.66" y2="79.08" xlink:href="#linear-gradient"/><linearGradient id="linear-gradient-9" x1="744.02" y1="23.95" x2="788.2" y2="23.95" xlink:href="#linear-gradient"/><linearGradient id="linear-gradient-10" x1="743.21" y1="106.58" x2="788.18" y2="106.58" xlink:href="#linear-gradient"/><linearGradient id="linear-gradient-11" x1="806.66" y1="78" x2="906.39" y2="78" xlink:href="#linear-gradient"/></defs><g id="Layer_2" data-name="Layer 2"><g id="Layer_1-2" data-name="Layer 1"><polygon class="cls-1" points="96.67 61.72 96.36 65.03 98.27 67.44 101.55 78.75 99.09 90.52 95.85 92.47 98.1 94.97 101.28 106.18 97.58 117.1 90.48 126.16 78.86 127.12 72.59 127.34 74.19 133.61 70.23 144.57 62.47 152.56 51.43 155.56 39.61 153.92 31.87 145 27.95 133.61 30.76 126.85 24 126.91 13.44 124.27 5.91 116.73 3.17 106.18 5.28 95.27 5.27 92.47 4.52 90.09 0.84 78.75 4.71 67.52 5.47 65.03 5.69 62 0.76 51.32 3.73 39.52 7.43 37.6 6 34.39 0.57 23.89 6.25 13.52 12.24 3.68 24 2 35.74 3.69 41.75 13.52 46.36 23.89 44.04 35.55 40.94 37.6 43.9 39.73 45.24 51.32 44.01 62.97 41.77 65.03 43.23 67.54 46.02 78.75 44.04 90.42 40.39 92.47 42.09 95.62 46.47 106.18 44.02 113.59 51.43 110.5 57.29 112.04 56.3 106.18 58.96 94.6 62.06 92.47 59.7 89.91 56.45 78.75 59.31 67.36 61.04 65.03 59.04 62.85 57.19 51.32 60.41 40.56 60.22 37.6 60.33 34.69 56.28 23.89 60.13 12.97 67.92 5.13 78.86 1.27 90.21 4.39 97.48 13.03 99.6 23.89 97.73 34.89 96.55 37.6 96.6 40.96 99.3 51.32 96.67 61.72"/><polygon class="cls-2" points="96.67 61.72 96.36 65.03 98.27 67.44 101.55 78.75 99.09 90.52 95.85 92.47 98.1 94.97 101.28 106.18 97.58 117.1 90.48 126.16 78.86 127.12 72.59 127.34 74.19 133.61 70.23 144.57 62.47 152.56 51.43 155.56 39.61 153.92 31.87 145 27.95 133.61 30.76 126.85 24 126.91 13.44 124.27 5.91 116.73 3.17 106.18 5.28 95.27 5.27 92.47 4.52 90.09 0.84 78.75 4.71 67.52 5.47 65.03 5.69 62 0.76 51.32 3.73 39.52 7.43 37.6 6 34.39 0.57 23.89 6.25 13.52 12.24 3.68 24 2 35.74 3.69 41.75 13.52 46.36 23.89 44.04 35.55 40.94 37.6 43.9 39.73 45.24 51.32 44.01 62.97 41.77 65.03 43.23 67.54 46.02 78.75 44.04 90.42 40.39 92.47 42.09 95.62 46.47 106.18 44.02 113.59 51.43 110.5 57.29 112.04 56.3 106.18 58.96 94.6 62.06 92.47 59.7 89.91 56.45 78.75 59.31 67.36 61.04 65.03 59.04 62.85 57.19 51.32 60.41 40.56 60.22 37.6 60.33 34.69 56.28 23.89 60.13 12.97 67.92 5.13 78.86 1.27 90.21 4.39 97.48 13.03 99.6 23.89 97.73 34.89 96.55 37.6 96.6 40.96 99.3 51.32 96.67 61.72"/><polygon class="cls-3" points="134.54 42.8 145.57 46.19 156.48 42.61 164.26 34.78 167.37 23.89 164.97 12.58 156.6 4.95 145.57 2.32 134.37 4.67 126.17 12.59 123.75 23.89 126.39 35.06 134.54 42.8"/><polygon class="cls-2" points="134.54 42.8 145.57 46.19 156.48 42.61 164.26 34.78 167.37 23.89 164.97 12.58 156.6 4.95 145.57 2.32 134.37 4.67 126.17 12.59 123.75 23.89 126.39 35.06 134.54 42.8"/><polygon class="cls-4" points="167.85 78.75 164.31 67.82 156.31 60.33 145.57 57.76 134.31 59.42 127.23 68.05 123.45 78.75 126.76 89.71 127.81 92.47 125.77 94.65 124.33 106.18 126.48 117.3 128.49 119.9 126.98 122.78 123.4 133.61 127.17 144.34 134.29 152.97 145.57 154.92 156.23 151.89 164.8 144.82 167.55 133.61 164.85 122.38 162.6 119.9 165.06 117.54 167.8 106.18 165.25 94.72 162.91 92.47 165.31 90.25 167.85 78.75"/><polygon class="cls-2" points="167.85 78.75 164.31 67.82 156.31 60.33 145.57 57.76 134.31 59.42 127.23 68.05 123.45 78.75 126.76 89.71 127.81 92.47 125.77 94.65 124.33 106.18 126.48 117.3 128.49 119.9 126.98 122.78 123.4 133.61 127.17 144.34 134.29 152.97 145.57 154.92 156.23 151.89 164.8 144.82 167.55 133.61 164.85 122.38 162.6 119.9 165.06 117.54 167.8 106.18 165.25 94.72 162.91 92.47 165.31 90.25 167.85 78.75"/><path class="cls-5" d="M289.38,106.18l-2.74-11-8.43-6.9L267.76,84.9,262,84.5l-1-5.75-.61-7.36,7.36,2.09,11.2-3,6.86-8.68,3.09-10.53-1.38-11.51L279,32.06l-11.22-3-7,1.85.2-7L258.9,13.06l-7.57-8-11-2.16L229.72,5.71l-3.11-.15-3.12.17L212.9,2.36,202.19,5.53l-8.68,7.06-2.09,11.3L193.89,35l1.71,2.63L193.38,40l-1.26,11.37.95,11.54L197,65,195,68.32l-2.56,10.43,1.87,10.82.9,2.9-1,2.82L192,106.18l1.5,11.29.59,2.43-.08,2.71-3.48,11,4,10.7,6.68,9.34,11.66,2.12,10.49-4.18,8.83-6.72,3.93-11.26-3.44-11.53L230,119.9l.59-3.36,4.28-10.36-1.83-7.25,7.25,2.64,7.09-2.48-.6,7.09,1.31,11.43,2.68,2.29-3.37,1.89-.5,11.82.79,11.66,8.55,8.07,11.48.83,10.57-2.44,7.54-7.55,4.58-10.57-3-11.46-1.66-2.25.63-2.84ZM246.14,51.32l.72,6.53-6.53.29-6.85,0,2.24-6.85-2.66-7.27,7.27.4,6.23.64Z"/><path class="cls-2" d="M289.38,106.18l-2.74-11-8.43-6.9L267.76,84.9,262,84.5l-1-5.75-.61-7.36,7.36,2.09,11.2-3,6.86-8.68,3.09-10.53-1.38-11.51L279,32.06l-11.22-3-7,1.85.2-7L258.9,13.06l-7.57-8-11-2.16L229.72,5.71l-3.11-.15-3.12.17L212.9,2.36,202.19,5.53l-8.68,7.06-2.09,11.3L193.89,35l1.71,2.63L193.38,40l-1.26,11.37.95,11.54L197,65,195,68.32l-2.56,10.43,1.87,10.82.9,2.9-1,2.82L192,106.18l1.5,11.29.59,2.43-.08,2.71-3.48,11,4,10.7,6.68,9.34,11.66,2.12,10.49-4.18,8.83-6.72,3.93-11.26-3.44-11.53L230,119.9l.59-3.36,4.28-10.36-1.83-7.25,7.25,2.64,7.09-2.48-.6,7.09,1.31,11.43,2.68,2.29-3.37,1.89-.5,11.82.79,11.66,8.55,8.07,11.48.83,10.57-2.44,7.54-7.55,4.58-10.57-3-11.46-1.66-2.25.63-2.84ZM246.14,51.32l.72,6.53-6.53.29-6.85,0,2.24-6.85-2.66-7.27,7.27.4,6.23.64Z"/><polygon class="cls-6" points="395.81 12.49 387.42 4.69 376.24 0.54 365.21 4.97 362.52 5.32 359.99 4.7 348.81 2.38 337.39 4.27 335.09 6.38 332.32 5.12 321.38 1.57 309.62 3.68 303.31 13.35 299.82 23.89 302.27 35.02 310.35 42.81 321.38 46.08 328.1 44.6 325.6 51.32 330.43 62.04 330.81 65.03 328.43 66.89 327.17 78.75 329.63 89.92 330.14 92.47 330.28 95.38 327.54 106.18 330.84 116.67 332.52 119.9 329.65 122.45 327.2 133.61 330.61 144.23 338.16 151.86 348.81 155.85 360.28 153.32 366.59 143.99 369.69 133.61 366.69 123.17 365.98 119.9 368.1 117.42 369.93 106.18 368.66 94.62 367.35 92.47 367.69 89.76 370.78 78.75 367.81 67.67 366.48 65.03 368.47 62.77 369.34 51.32 370.54 45.62 376.24 46.9 387.99 44.08 396.36 35.6 399.39 23.89 395.81 12.49"/><polygon class="cls-2" points="395.81 12.49 387.42 4.69 376.24 0.54 365.21 4.97 362.52 5.32 359.99 4.7 348.81 2.38 337.39 4.27 335.09 6.38 332.32 5.12 321.38 1.57 309.62 3.68 303.31 13.35 299.82 23.89 302.27 35.02 310.35 42.81 321.38 46.08 328.1 44.6 325.6 51.32 330.43 62.04 330.81 65.03 328.43 66.89 327.17 78.75 329.63 89.92 330.14 92.47 330.28 95.38 327.54 106.18 330.84 116.67 332.52 119.9 329.65 122.45 327.2 133.61 330.61 144.23 338.16 151.86 348.81 155.85 360.28 153.32 366.59 143.99 369.69 133.61 366.69 123.17 365.98 119.9 368.1 117.42 369.93 106.18 368.66 94.62 367.35 92.47 367.69 89.76 370.78 78.75 367.81 67.67 366.48 65.03 368.47 62.77 369.34 51.32 370.54 45.62 376.24 46.9 387.99 44.08 396.36 35.6 399.39 23.89 395.81 12.49"/><polygon class="cls-7" points="507.99 51.32 505.65 39.85 502.99 37.6 505.96 35.53 508.73 23.89 503.89 13.42 496.58 5.69 485.96 1.61 474.28 3.82 467.37 13.04 462.61 23.89 466.86 35.02 468.15 37.6 467.14 40.35 465.13 51.32 466.41 62.7 467.62 65.03 467 67.69 462.95 78.75 466.58 90.04 468.77 92.47 467.19 95.24 463.03 106.18 464.95 112.59 458.53 110.54 452.04 112.67 452.98 106.18 449.88 95.23 449.58 92.47 451.1 90.39 453.74 78.75 450.22 67.61 448.91 65.03 450.99 62.89 453.72 51.32 449.47 40.6 447.18 37.6 448.92 34.29 451.61 23.89 451.37 12.09 442.9 3.6 431.1 3.05 420.08 4.97 410.93 12.15 408.32 23.89 411.01 35.58 412.73 37.6 411.49 39.9 408.44 51.32 411.19 62.91 413.98 65.03 411.81 67.51 409.38 78.75 412.9 89.37 412.96 92.47 412.1 95.11 408.22 106.18 411.77 117.44 419.69 125.77 431.1 128.92 438.13 126.59 436.39 133.61 438.35 145.36 447.26 152.96 458.53 156.31 468.99 151.53 472.25 149.72 475.46 151.61 485.96 154.03 497.03 152.6 504.41 144.37 508.88 133.61 504.3 122.92 504.82 119.9 504.92 117.23 506.72 106.18 503.71 95.82 504.44 92.47 504.66 89.65 508.95 78.75 505.6 67.31 503.43 65.03 506.1 63.03 507.99 51.32"/><polygon class="cls-2" points="507.99 51.32 505.65 39.85 502.99 37.6 505.96 35.53 508.73 23.89 503.89 13.42 496.58 5.69 485.96 1.61 474.28 3.82 467.37 13.04 462.61 23.89 466.86 35.02 468.15 37.6 467.14 40.35 465.13 51.32 466.41 62.7 467.62 65.03 467 67.69 462.95 78.75 466.58 90.04 468.77 92.47 467.19 95.24 463.03 106.18 464.95 112.59 458.53 110.54 452.04 112.67 452.98 106.18 449.88 95.23 449.58 92.47 451.1 90.39 453.74 78.75 450.22 67.61 448.91 65.03 450.99 62.89 453.72 51.32 449.47 40.6 447.18 37.6 448.92 34.29 451.61 23.89 451.37 12.09 442.9 3.6 431.1 3.05 420.08 4.97 410.93 12.15 408.32 23.89 411.01 35.58 412.73 37.6 411.49 39.9 408.44 51.32 411.19 62.91 413.98 65.03 411.81 67.51 409.38 78.75 412.9 89.37 412.96 92.47 412.1 95.11 408.22 106.18 411.77 117.44 419.69 125.77 431.1 128.92 438.13 126.59 436.39 133.61 438.35 145.36 447.26 152.96 458.53 156.31 468.99 151.53 472.25 149.72 475.46 151.61 485.96 154.03 497.03 152.6 504.41 144.37 508.88 133.61 504.3 122.92 504.82 119.9 504.92 117.23 506.72 106.18 503.71 95.82 504.44 92.47 504.66 89.65 508.95 78.75 505.6 67.31 503.43 65.03 506.1 63.03 507.99 51.32"/><path class="cls-8" d="M632.08,78.75l-4.81-10.43L625.39,65l2.76-2.79,3.73-10.92-4.17-10.68-6.58-9.48L609.4,29.73,602.34,31l1.27-7.06L601,12.81l-7.68-8.35L582,1.85,571.39,5.74l-9.34,6.55-1.52,11.6.38,6.37-6.37-.4-11.33,2-8.71,7.8-.78,11.66L534.47,63l1.22,2-.52,2.43L533.3,78.75l3.09,10.59-.27,3.13-2,1.86-2.79,11.85,4,11.14,3.15,2.58-3.43,2.41-1.89,11.3,2.08,11.2,8,8,11.16,2.83,11.58-2.1,7.81-8.6,2-11.29-3.55-10.4-.46-3.31,1.53-2.71,2.43-11-.24-6.35,6.35.27,7.4-1.31-1,7.39,2.13,11,.51,2.67.7,3.35-5.24,10.36,2.66,11.82,9.92,6,10.4,3.44,11.46-1.58,7.61-8.57,4.18-11.11L628,122.75l-.59-2.85,1.07-2.59,2.68-11.13-3.44-10.7-1-3,.85-3.13ZM586.73,51.32l2.6,7.35L582,58.14,575.33,58,577,51.32l-2-7,7,2.76,6.63-2.4Z"/><path class="cls-2" d="M632.08,78.75l-4.81-10.43L625.39,65l2.76-2.79,3.73-10.92-4.17-10.68-6.58-9.48L609.4,29.73,602.34,31l1.27-7.06L601,12.81l-7.68-8.35L582,1.85,571.39,5.74l-9.34,6.55-1.52,11.6.38,6.37-6.37-.4-11.33,2-8.71,7.8-.78,11.66L534.47,63l1.22,2-.52,2.43L533.3,78.75l3.09,10.59-.27,3.13-2,1.86-2.79,11.85,4,11.14,3.15,2.58-3.43,2.41-1.89,11.3,2.08,11.2,8,8,11.16,2.83,11.58-2.1,7.81-8.6,2-11.29-3.55-10.4-.46-3.31,1.53-2.71,2.43-11-.24-6.35,6.35.27,7.4-1.31-1,7.39,2.13,11,.51,2.67.7,3.35-5.24,10.36,2.66,11.82,9.92,6,10.4,3.44,11.46-1.58,7.61-8.57,4.18-11.11L628,122.75l-.59-2.85,1.07-2.59,2.68-11.13-3.44-10.7-1-3,.85-3.13ZM586.73,51.32l2.6,7.35L582,58.14,575.33,58,577,51.32l-2-7,7,2.76,6.63-2.4Z"/><polygon class="cls-9" points="720.23 122.79 712.75 114.61 701.68 112.69 696.33 111.53 695.01 106.18 692.47 95.55 692.33 92.47 693.33 89.87 696.2 78.75 694.11 67.19 691.82 65.03 694.38 63.04 697.04 51.32 692.34 40.76 692.79 37.6 694.44 35.64 696.45 23.89 693.74 12.53 685.92 3.83 674.25 3 663.47 5.41 655.2 12.79 651.39 23.89 656.13 34.46 658.13 37.6 656.3 40.84 651.73 51.32 655.33 62.34 657.34 65.03 655.44 67.79 652.78 78.75 656.23 89.26 657.41 92.47 654.03 94.42 652.89 106.18 654.42 117.72 657.93 119.9 655.66 122.77 651.69 133.61 653.96 145.41 663.3 152.38 674.25 154.43 685.16 152.34 687.96 150.71 690.83 152.22 701.68 155.16 712.68 152.49 721.22 145 722.66 133.61 720.23 122.79"/><polygon class="cls-2" points="720.23 122.79 712.75 114.61 701.68 112.69 696.33 111.53 695.01 106.18 692.47 95.55 692.33 92.47 693.33 89.87 696.2 78.75 694.11 67.19 691.82 65.03 694.38 63.04 697.04 51.32 692.34 40.76 692.79 37.6 694.44 35.64 696.45 23.89 693.74 12.53 685.92 3.83 674.25 3 663.47 5.41 655.2 12.79 651.39 23.89 656.13 34.46 658.13 37.6 656.3 40.84 651.73 51.32 655.33 62.34 657.34 65.03 655.44 67.79 652.78 78.75 656.23 89.26 657.41 92.47 654.03 94.42 652.89 106.18 654.42 117.72 657.93 119.9 655.66 122.77 651.69 133.61 653.96 145.41 663.3 152.38 674.25 154.43 685.16 152.34 687.96 150.71 690.83 152.22 701.68 155.16 712.68 152.49 721.22 145 722.66 133.61 720.23 122.79"/><polygon class="cls-10" points="754.89 42.76 765.89 45.91 777.02 42.99 784.96 35 788.2 23.89 785.13 12.68 777.11 4.63 765.89 2 754.65 4.59 746.64 12.67 744.02 23.89 746.47 35.2 754.89 42.76"/><polygon class="cls-2" points="754.89 42.76 765.89 45.91 777.02 42.99 784.96 35 788.2 23.89 785.13 12.68 777.11 4.63 765.89 2 754.65 4.59 746.64 12.67 744.02 23.89 746.47 35.2 754.89 42.76"/><polygon class="cls-11" points="788.18 78.75 784.99 67.62 776.57 60.45 765.89 56.85 755 60.07 747.56 68.06 743.21 78.75 747.2 89.65 749.55 92.47 746.2 94.72 743.64 106.18 746.94 117.22 749.51 119.9 747.46 122.86 744.18 133.61 746.25 145.05 755.11 152.1 765.89 156.31 777.04 152.75 785.81 145.21 787.6 133.61 785.55 122.17 783.89 119.9 785.8 117.77 787.5 106.18 784.36 95.41 782.85 92.47 785.73 90.3 788.18 78.75"/><polygon class="cls-2" points="788.18 78.75 784.99 67.62 776.57 60.45 765.89 56.85 755 60.07 747.56 68.06 743.21 78.75 747.2 89.65 749.55 92.47 746.2 94.72 743.64 106.18 746.94 117.22 749.51 119.9 747.46 122.86 744.18 133.61 746.25 145.05 755.11 152.1 765.89 156.31 777.04 152.75 785.81 145.21 787.6 133.61 785.55 122.17 783.89 119.9 785.8 117.77 787.5 106.18 784.36 95.41 782.85 92.47 785.73 90.3 788.18 78.75"/><polygon class="cls-12" points="894.62 87.5 883.73 84.47 878.37 84.11 876.89 78.75 874.5 68.13 867.87 58.87 856.3 58.12 849.95 57.67 849.91 51.32 849.54 44.56 856.3 44.47 867.63 43.35 870.01 41.15 872.55 43.08 883.73 45.15 894.64 42.61 903.86 35.6 906.08 23.89 901.64 13.43 894.25 5.85 883.73 0.99 872.06 3.84 870.01 6.61 867.65 4.38 856.3 1.91 845.86 6 837.63 13 833.41 23.89 835.61 30.63 828.87 30.63 818.39 33.38 808.63 39.54 806.66 51.32 809.56 62.56 818.13 69.71 828.87 72.34 834.18 73.43 833 78.75 837.5 89.71 845.57 97.14 856.3 102.06 862.5 99.97 863.31 106.18 863.22 113.11 856.3 112.52 844.65 113.61 842.58 117.54 839.51 115.37 828.87 112.03 818.07 115.1 809.73 122.46 808.09 133.61 809.5 144.89 817.46 153.19 828.87 155.02 839.74 152.25 842.58 150 844.77 153.41 856.3 154.24 867.09 152.11 874.99 144.51 879.21 133.61 878.14 128.02 883.73 126.65 895.07 125.66 901.74 116.69 906.39 106.18 901.55 95.77 894.62 87.5"/><polygon class="cls-2" points="894.62 87.5 883.73 84.47 878.37 84.11 876.89 78.75 874.5 68.13 867.87 58.87 856.3 58.12 849.95 57.67 849.91 51.32 849.54 44.56 856.3 44.47 867.63 43.35 870.01 41.15 872.55 43.08 883.73 45.15 894.64 42.61 903.86 35.6 906.08 23.89 901.64 13.43 894.25 5.85 883.73 0.99 872.06 3.84 870.01 6.61 867.65 4.38 856.3 1.91 845.86 6 837.63 13 833.41 23.89 835.61 30.63 828.87 30.63 818.39 33.38 808.63 39.54 806.66 51.32 809.56 62.56 818.13 69.71 828.87 72.34 834.18 73.43 833 78.75 837.5 89.71 845.57 97.14 856.3 102.06 862.5 99.97 863.31 106.18 863.22 113.11 856.3 112.52 844.65 113.61 842.58 117.54 839.51 115.37 828.87 112.03 818.07 115.1 809.73 122.46 808.09 133.61 809.5 144.89 817.46 153.19 828.87 155.02 839.74 152.25 842.58 150 844.77 153.41 856.3 154.24 867.09 152.11 874.99 144.51 879.21 133.61 878.14 128.02 883.73 126.65 895.07 125.66 901.74 116.69 906.39 106.18 901.55 95.77 894.62 87.5"/><polygon class="cls-1" points="96.67 61.72 96.36 65.03 98.27 67.44 101.55 78.75 99.09 90.52 95.85 92.47 98.1 94.97 101.28 106.18 97.58 117.1 90.48 126.16 78.86 127.12 72.59 127.34 74.19 133.61 70.23 144.57 62.47 152.56 51.43 155.56 39.61 153.92 31.87 145 27.95 133.61 30.76 126.85 24 126.91 13.44 124.27 5.91 116.73 3.17 106.18 5.28 95.27 5.27 92.47 4.52 90.09 0.84 78.75 4.71 67.52 5.47 65.03 5.69 62 0.76 51.32 3.73 39.52 7.43 37.6 6 34.39 0.57 23.89 6.25 13.52 12.24 3.68 24 2 35.74 3.69 41.75 13.52 46.36 23.89 44.04 35.55 40.94 37.6 43.9 39.73 45.24 51.32 44.01 62.97 41.77 65.03 43.23 67.54 46.02 78.75 44.04 90.42 40.39 92.47 42.09 95.62 46.47 106.18 44.02 113.59 51.43 110.5 57.29 112.04 56.3 106.18 58.96 94.6 62.06 92.47 59.7 89.91 56.45 78.75 59.31 67.36 61.04 65.03 59.04 62.85 57.19 51.32 60.41 40.56 60.22 37.6 60.33 34.69 56.28 23.89 60.13 12.97 67.92 5.13 78.86 1.27 90.21 4.39 97.48 13.03 99.6 23.89 97.73 34.89 96.55 37.6 96.6 40.96 99.3 51.32 96.67 61.72"/><polygon class="cls-2" points="96.67 61.72 96.36 65.03 98.27 67.44 101.55 78.75 99.09 90.52 95.85 92.47 98.1 94.97 101.28 106.18 97.58 117.1 90.48 126.16 78.86 127.12 72.59 127.34 74.19 133.61 70.23 144.57 62.47 152.56 51.43 155.56 39.61 153.92 31.87 145 27.95 133.61 30.76 126.85 24 126.91 13.44 124.27 5.91 116.73 3.17 106.18 5.28 95.27 5.27 92.47 4.52 90.09 0.84 78.75 4.71 67.52 5.47 65.03 5.69 62 0.76 51.32 3.73 39.52 7.43 37.6 6 34.39 0.57 23.89 6.25 13.52 12.24 3.68 24 2 35.74 3.69 41.75 13.52 46.36 23.89 44.04 35.55 40.94 37.6 43.9 39.73 45.24 51.32 44.01 62.97 41.77 65.03 43.23 67.54 46.02 78.75 44.04 90.42 40.39 92.47 42.09 95.62 46.47 106.18 44.02 113.59 51.43 110.5 57.29 112.04 56.3 106.18 58.96 94.6 62.06 92.47 59.7 89.91 56.45 78.75 59.31 67.36 61.04 65.03 59.04 62.85 57.19 51.32 60.41 40.56 60.22 37.6 60.33 34.69 56.28 23.89 60.13 12.97 67.92 5.13 78.86 1.27 90.21 4.39 97.48 13.03 99.6 23.89 97.73 34.89 96.55 37.6 96.6 40.96 99.3 51.32 96.67 61.72"/><polygon class="cls-3" points="134.54 42.8 145.57 46.19 156.48 42.61 164.26 34.78 167.37 23.89 164.97 12.58 156.6 4.95 145.57 2.32 134.37 4.67 126.17 12.59 123.75 23.89 126.39 35.06 134.54 42.8"/><polygon class="cls-2" points="134.54 42.8 145.57 46.19 156.48 42.61 164.26 34.78 167.37 23.89 164.97 12.58 156.6 4.95 145.57 2.32 134.37 4.67 126.17 12.59 123.75 23.89 126.39 35.06 134.54 42.8"/><polygon class="cls-4" points="167.85 78.75 164.31 67.82 156.31 60.33 145.57 57.76 134.31 59.42 127.23 68.05 123.45 78.75 126.76 89.71 127.81 92.47 125.77 94.65 124.33 106.18 126.48 117.3 128.49 119.9 126.98 122.78 123.4 133.61 127.17 144.34 134.29 152.97 145.57 154.92 156.23 151.89 164.8 144.82 167.55 133.61 164.85 122.38 162.6 119.9 165.06 117.54 167.8 106.18 165.25 94.72 162.91 92.47 165.31 90.25 167.85 78.75"/><polygon class="cls-2" points="167.85 78.75 164.31 67.82 156.31 60.33 145.57 57.76 134.31 59.42 127.23 68.05 123.45 78.75 126.76 89.71 127.81 92.47 125.77 94.65 124.33 106.18 126.48 117.3 128.49 119.9 126.98 122.78 123.4 133.61 127.17 144.34 134.29 152.97 145.57 154.92 156.23 151.89 164.8 144.82 167.55 133.61 164.85 122.38 162.6 119.9 165.06 117.54 167.8 106.18 165.25 94.72 162.91 92.47 165.31 90.25 167.85 78.75"/><path class="cls-5" d="M289.38,106.18l-2.74-11-8.43-6.9L267.76,84.9,262,84.5l-1-5.75-.61-7.36,7.36,2.09,11.2-3,6.86-8.68,3.09-10.53-1.38-11.51L279,32.06l-11.22-3-7,1.85.2-7L258.9,13.06l-7.57-8-11-2.16L229.72,5.71l-3.11-.15-3.12.17L212.9,2.36,202.19,5.53l-8.68,7.06-2.09,11.3L193.89,35l1.71,2.63L193.38,40l-1.26,11.37.95,11.54L197,65,195,68.32l-2.56,10.43,1.87,10.82.9,2.9-1,2.82L192,106.18l1.5,11.29.59,2.43-.08,2.71-3.48,11,4,10.7,6.68,9.34,11.66,2.12,10.49-4.18,8.83-6.72,3.93-11.26-3.44-11.53L230,119.9l.59-3.36,4.28-10.36-1.83-7.25,7.25,2.64,7.09-2.48-.6,7.09,1.31,11.43,2.68,2.29-3.37,1.89-.5,11.82.79,11.66,8.55,8.07,11.48.83,10.57-2.44,7.54-7.55,4.58-10.57-3-11.46-1.66-2.25.63-2.84ZM246.14,51.32l.72,6.53-6.53.29-6.85,0,2.24-6.85-2.66-7.27,7.27.4,6.23.64Z"/><path class="cls-2" d="M289.38,106.18l-2.74-11-8.43-6.9L267.76,84.9,262,84.5l-1-5.75-.61-7.36,7.36,2.09,11.2-3,6.86-8.68,3.09-10.53-1.38-11.51L279,32.06l-11.22-3-7,1.85.2-7L258.9,13.06l-7.57-8-11-2.16L229.72,5.71l-3.11-.15-3.12.17L212.9,2.36,202.19,5.53l-8.68,7.06-2.09,11.3L193.89,35l1.71,2.63L193.38,40l-1.26,11.37.95,11.54L197,65,195,68.32l-2.56,10.43,1.87,10.82.9,2.9-1,2.82L192,106.18l1.5,11.29.59,2.43-.08,2.71-3.48,11,4,10.7,6.68,9.34,11.66,2.12,10.49-4.18,8.83-6.72,3.93-11.26-3.44-11.53L230,119.9l.59-3.36,4.28-10.36-1.83-7.25,7.25,2.64,7.09-2.48-.6,7.09,1.31,11.43,2.68,2.29-3.37,1.89-.5,11.82.79,11.66,8.55,8.07,11.48.83,10.57-2.44,7.54-7.55,4.58-10.57-3-11.46-1.66-2.25.63-2.84ZM246.14,51.32l.72,6.53-6.53.29-6.85,0,2.24-6.85-2.66-7.27,7.27.4,6.23.64Z"/><polygon class="cls-6" points="395.81 12.49 387.42 4.69 376.24 0.54 365.21 4.97 362.52 5.32 359.99 4.7 348.81 2.38 337.39 4.27 335.09 6.38 332.32 5.12 321.38 1.57 309.62 3.68 303.31 13.35 299.82 23.89 302.27 35.02 310.35 42.81 321.38 46.08 328.1 44.6 325.6 51.32 330.43 62.04 330.81 65.03 328.43 66.89 327.17 78.75 329.63 89.92 330.14 92.47 330.28 95.38 327.54 106.18 330.84 116.67 332.52 119.9 329.65 122.45 327.2 133.61 330.61 144.23 338.16 151.86 348.81 155.85 360.28 153.32 366.59 143.99 369.69 133.61 366.69 123.17 365.98 119.9 368.1 117.42 369.93 106.18 368.66 94.62 367.35 92.47 367.69 89.76 370.78 78.75 367.81 67.67 366.48 65.03 368.47 62.77 369.34 51.32 370.54 45.62 376.24 46.9 387.99 44.08 396.36 35.6 399.39 23.89 395.81 12.49"/><polygon class="cls-2" points="395.81 12.49 387.42 4.69 376.24 0.54 365.21 4.97 362.52 5.32 359.99 4.7 348.81 2.38 337.39 4.27 335.09 6.38 332.32 5.12 321.38 1.57 309.62 3.68 303.31 13.35 299.82 23.89 302.27 35.02 310.35 42.81 321.38 46.08 328.1 44.6 325.6 51.32 330.43 62.04 330.81 65.03 328.43 66.89 327.17 78.75 329.63 89.92 330.14 92.47 330.28 95.38 327.54 106.18 330.84 116.67 332.52 119.9 329.65 122.45 327.2 133.61 330.61 144.23 338.16 151.86 348.81 155.85 360.28 153.32 366.59 143.99 369.69 133.61 366.69 123.17 365.98 119.9 368.1 117.42 369.93 106.18 368.66 94.62 367.35 92.47 367.69 89.76 370.78 78.75 367.81 67.67 366.48 65.03 368.47 62.77 369.34 51.32 370.54 45.62 376.24 46.9 387.99 44.08 396.36 35.6 399.39 23.89 395.81 12.49"/><polygon class="cls-7" points="507.99 51.32 505.65 39.85 502.99 37.6 505.96 35.53 508.73 23.89 503.89 13.42 496.58 5.69 485.96 1.61 474.28 3.82 467.37 13.04 462.61 23.89 466.86 35.02 468.15 37.6 467.14 40.35 465.13 51.32 466.41 62.7 467.62 65.03 467 67.69 462.95 78.75 466.58 90.04 468.77 92.47 467.19 95.24 463.03 106.18 464.95 112.59 458.53 110.54 452.04 112.67 452.98 106.18 449.88 95.23 449.58 92.47 451.1 90.39 453.74 78.75 450.22 67.61 448.91 65.03 450.99 62.89 453.72 51.32 449.47 40.6 447.18 37.6 448.92 34.29 451.61 23.89 451.37 12.09 442.9 3.6 431.1 3.05 420.08 4.97 410.93 12.15 408.32 23.89 411.01 35.58 412.73 37.6 411.49 39.9 408.44 51.32 411.19 62.91 413.98 65.03 411.81 67.51 409.38 78.75 412.9 89.37 412.96 92.47 412.1 95.11 408.22 106.18 411.77 117.44 419.69 125.77 431.1 128.92 438.13 126.59 436.39 133.61 438.35 145.36 447.26 152.96 458.53 156.31 468.99 151.53 472.25 149.72 475.46 151.61 485.96 154.03 497.03 152.6 504.41 144.37 508.88 133.61 504.3 122.92 504.82 119.9 504.92 117.23 506.72 106.18 503.71 95.82 504.44 92.47 504.66 89.65 508.95 78.75 505.6 67.31 503.43 65.03 506.1 63.03 507.99 51.32"/><polygon class="cls-2" points="507.99 51.32 505.65 39.85 502.99 37.6 505.96 35.53 508.73 23.89 503.89 13.42 496.58 5.69 485.96 1.61 474.28 3.82 467.37 13.04 462.61 23.89 466.86 35.02 468.15 37.6 467.14 40.35 465.13 51.32 466.41 62.7 467.62 65.03 467 67.69 462.95 78.75 466.58 90.04 468.77 92.47 467.19 95.24 463.03 106.18 464.95 112.59 458.53 110.54 452.04 112.67 452.98 106.18 449.88 95.23 449.58 92.47 451.1 90.39 453.74 78.75 450.22 67.61 448.91 65.03 450.99 62.89 453.72 51.32 449.47 40.6 447.18 37.6 448.92 34.29 451.61 23.89 451.37 12.09 442.9 3.6 431.1 3.05 420.08 4.97 410.93 12.15 408.32 23.89 411.01 35.58 412.73 37.6 411.49 39.9 408.44 51.32 411.19 62.91 413.98 65.03 411.81 67.51 409.38 78.75 412.9 89.37 412.96 92.47 412.1 95.11 408.22 106.18 411.77 117.44 419.69 125.77 431.1 128.92 438.13 126.59 436.39 133.61 438.35 145.36 447.26 152.96 458.53 156.31 468.99 151.53 472.25 149.72 475.46 151.61 485.96 154.03 497.03 152.6 504.41 144.37 508.88 133.61 504.3 122.92 504.82 119.9 504.92 117.23 506.72 106.18 503.71 95.82 504.44 92.47 504.66 89.65 508.95 78.75 505.6 67.31 503.43 65.03 506.1 63.03 507.99 51.32"/><path class="cls-8" d="M632.08,78.75l-4.81-10.43L625.39,65l2.76-2.79,3.73-10.92-4.17-10.68-6.58-9.48L609.4,29.73,602.34,31l1.27-7.06L601,12.81l-7.68-8.35L582,1.85,571.39,5.74l-9.34,6.55-1.52,11.6.38,6.37-6.37-.4-11.33,2-8.71,7.8-.78,11.66L534.47,63l1.22,2-.52,2.43L533.3,78.75l3.09,10.59-.27,3.13-2,1.86-2.79,11.85,4,11.14,3.15,2.58-3.43,2.41-1.89,11.3,2.08,11.2,8,8,11.16,2.83,11.58-2.1,7.81-8.6,2-11.29-3.55-10.4-.46-3.31,1.53-2.71,2.43-11-.24-6.35,6.35.27,7.4-1.31-1,7.39,2.13,11,.51,2.67.7,3.35-5.24,10.36,2.66,11.82,9.92,6,10.4,3.44,11.46-1.58,7.61-8.57,4.18-11.11L628,122.75l-.59-2.85,1.07-2.59,2.68-11.13-3.44-10.7-1-3,.85-3.13ZM586.73,51.32l2.6,7.35L582,58.14,575.33,58,577,51.32l-2-7,7,2.76,6.63-2.4Z"/><path class="cls-2" d="M632.08,78.75l-4.81-10.43L625.39,65l2.76-2.79,3.73-10.92-4.17-10.68-6.58-9.48L609.4,29.73,602.34,31l1.27-7.06L601,12.81l-7.68-8.35L582,1.85,571.39,5.74l-9.34,6.55-1.52,11.6.38,6.37-6.37-.4-11.33,2-8.71,7.8-.78,11.66L534.47,63l1.22,2-.52,2.43L533.3,78.75l3.09,10.59-.27,3.13-2,1.86-2.79,11.85,4,11.14,3.15,2.58-3.43,2.41-1.89,11.3,2.08,11.2,8,8,11.16,2.83,11.58-2.1,7.81-8.6,2-11.29-3.55-10.4-.46-3.31,1.53-2.71,2.43-11-.24-6.35,6.35.27,7.4-1.31-1,7.39,2.13,11,.51,2.67.7,3.35-5.24,10.36,2.66,11.82,9.92,6,10.4,3.44,11.46-1.58,7.61-8.57,4.18-11.11L628,122.75l-.59-2.85,1.07-2.59,2.68-11.13-3.44-10.7-1-3,.85-3.13ZM586.73,51.32l2.6,7.35L582,58.14,575.33,58,577,51.32l-2-7,7,2.76,6.63-2.4Z"/><polygon class="cls-9" points="720.23 122.79 712.75 114.61 701.68 112.69 696.33 111.53 695.01 106.18 692.47 95.55 692.33 92.47 693.33 89.87 696.2 78.75 694.11 67.19 691.82 65.03 694.38 63.04 697.04 51.32 692.34 40.76 692.79 37.6 694.44 35.64 696.45 23.89 693.74 12.53 685.92 3.83 674.25 3 663.47 5.41 655.2 12.79 651.39 23.89 656.13 34.46 658.13 37.6 656.3 40.84 651.73 51.32 655.33 62.34 657.34 65.03 655.44 67.79 652.78 78.75 656.23 89.26 657.41 92.47 654.03 94.42 652.89 106.18 654.42 117.72 657.93 119.9 655.66 122.77 651.69 133.61 653.96 145.41 663.3 152.38 674.25 154.43 685.16 152.34 687.96 150.71 690.83 152.22 701.68 155.16 712.68 152.49 721.22 145 722.66 133.61 720.23 122.79"/><polygon class="cls-2" points="720.23 122.79 712.75 114.61 701.68 112.69 696.33 111.53 695.01 106.18 692.47 95.55 692.33 92.47 693.33 89.87 696.2 78.75 694.11 67.19 691.82 65.03 694.38 63.04 697.04 51.32 692.34 40.76 692.79 37.6 694.44 35.64 696.45 23.89 693.74 12.53 685.92 3.83 674.25 3 663.47 5.41 655.2 12.79 651.39 23.89 656.13 34.46 658.13 37.6 656.3 40.84 651.73 51.32 655.33 62.34 657.34 65.03 655.44 67.79 652.78 78.75 656.23 89.26 657.41 92.47 654.03 94.42 652.89 106.18 654.42 117.72 657.93 119.9 655.66 122.77 651.69 133.61 653.96 145.41 663.3 152.38 674.25 154.43 685.16 152.34 687.96 150.71 690.83 152.22 701.68 155.16 712.68 152.49 721.22 145 722.66 133.61 720.23 122.79"/><polygon class="cls-10" points="754.89 42.76 765.89 45.91 777.02 42.99 784.96 35 788.2 23.89 785.13 12.68 777.11 4.63 765.89 2 754.65 4.59 746.64 12.67 744.02 23.89 746.47 35.2 754.89 42.76"/><polygon class="cls-2" points="754.89 42.76 765.89 45.91 777.02 42.99 784.96 35 788.2 23.89 785.13 12.68 777.11 4.63 765.89 2 754.65 4.59 746.64 12.67 744.02 23.89 746.47 35.2 754.89 42.76"/><polygon class="cls-11" points="788.18 78.75 784.99 67.62 776.57 60.45 765.89 56.85 755 60.07 747.56 68.06 743.21 78.75 747.2 89.65 749.55 92.47 746.2 94.72 743.64 106.18 746.94 117.22 749.51 119.9 747.46 122.86 744.18 133.61 746.25 145.05 755.11 152.1 765.89 156.31 777.04 152.75 785.81 145.21 787.6 133.61 785.55 122.17 783.89 119.9 785.8 117.77 787.5 106.18 784.36 95.41 782.85 92.47 785.73 90.3 788.18 78.75"/><polygon class="cls-2" points="788.18 78.75 784.99 67.62 776.57 60.45 765.89 56.85 755 60.07 747.56 68.06 743.21 78.75 747.2 89.65 749.55 92.47 746.2 94.72 743.64 106.18 746.94 117.22 749.51 119.9 747.46 122.86 744.18 133.61 746.25 145.05 755.11 152.1 765.89 156.31 777.04 152.75 785.81 145.21 787.6 133.61 785.55 122.17 783.89 119.9 785.8 117.77 787.5 106.18 784.36 95.41 782.85 92.47 785.73 90.3 788.18 78.75"/><polygon class="cls-12" points="894.62 87.5 883.73 84.47 878.37 84.11 876.89 78.75 874.5 68.13 867.87 58.87 856.3 58.12 849.95 57.67 849.91 51.32 849.54 44.56 856.3 44.47 867.63 43.35 870.01 41.15 872.55 43.08 883.73 45.15 894.64 42.61 903.86 35.6 906.08 23.89 901.64 13.43 894.25 5.85 883.73 0.99 872.06 3.84 870.01 6.61 867.65 4.38 856.3 1.91 845.86 6 837.63 13 833.41 23.89 835.61 30.63 828.87 30.63 818.39 33.38 808.63 39.54 806.66 51.32 809.56 62.56 818.13 69.71 828.87 72.34 834.18 73.43 833 78.75 837.5 89.71 845.57 97.14 856.3 102.06 862.5 99.97 863.31 106.18 863.22 113.11 856.3 112.52 844.65 113.61 842.58 117.54 839.51 115.37 828.87 112.03 818.07 115.1 809.73 122.46 808.09 133.61 809.5 144.89 817.46 153.19 828.87 155.02 839.74 152.25 842.58 150 844.77 153.41 856.3 154.24 867.09 152.11 874.99 144.51 879.21 133.61 878.14 128.02 883.73 126.65 895.07 125.66 901.74 116.69 906.39 106.18 901.55 95.77 894.62 87.5"/><polygon class="cls-2" points="894.62 87.5 883.73 84.47 878.37 84.11 876.89 78.75 874.5 68.13 867.87 58.87 856.3 58.12 849.95 57.67 849.91 51.32 849.54 44.56 856.3 44.47 867.63 43.35 870.01 41.15 872.55 43.08 883.73 45.15 894.64 42.61 903.86 35.6 906.08 23.89 901.64 13.43 894.25 5.85 883.73 0.99 872.06 3.84 870.01 6.61 867.65 4.38 856.3 1.91 845.86 6 837.63 13 833.41 23.89 835.61 30.63 828.87 30.63 818.39 33.38 808.63 39.54 806.66 51.32 809.56 62.56 818.13 69.71 828.87 72.34 834.18 73.43 833 78.75 837.5 89.71 845.57 97.14 856.3 102.06 862.5 99.97 863.31 106.18 863.22 113.11 856.3 112.52 844.65 113.61 842.58 117.54 839.51 115.37 828.87 112.03 818.07 115.1 809.73 122.46 808.09 133.61 809.5 144.89 817.46 153.19 828.87 155.02 839.74 152.25 842.58 150 844.77 153.41 856.3 154.24 867.09 152.11 874.99 144.51 879.21 133.61 878.14 128.02 883.73 126.65 895.07 125.66 901.74 116.69 906.39 106.18 901.55 95.77 894.62 87.5"/></g></g></svg>